<svg xmlns="http://www.w3.org/2000/svg" viewBox="0 0 100 100" fill="none">
  <rect width="100" height="100" rx="20" fill="#1e293b"/>
  <rect x="15" y="15" width="70" height="25" rx="5" fill="#334155"/>
  <rect x="15" y="50" width="15" height="10" rx="3" fill="#64748b"/>
  <rect x="35" y="50" width="15" height="10" rx="3" fill="#64748b"/>
  <rect x="55" y="50" width="15" height="10" rx="3" fill="#64748b"/>
  <rect x="75" y="50" width="10" height="10" rx="3" fill="#f97316"/>
  <rect x="15" y="65" width="15" height="10" rx="3" fill="#64748b"/>
  <rect x="35" y="65" width="15" height="10" rx="3" fill="#64748b"/>
  <rect x="55" y="65" width="15" height="10" rx="3" fill="#64748b"/>
  <rect x="75" y="65" width="10" height="10" rx="3" fill="#f97316"/>
  <rect x="15" y="80" width="35" height="10" rx="3" fill="#64748b"/>
  <rect x="55" y="80" width="15" height="10" rx="3" fill="#64748b"/>
  <rect x="75" y="80" width="10" height="10" rx="3" fill="#f97316"/>
</svg>
